PathFileType	3	(X/Y/Z)	D:\VICON_DB\Goncalves\Pilot01\09-03-2026\walking_01.trc
DataRate	CameraRate	NumFrames	NumMarkers	Units	OrigDataRate	OrigDataStartFrame	OrigNumFrames
200.0	200.0	4	34	mm	200.0	453	1809	
Frame#	Time	LASI			RASI			LPSI			RPSI			LTHI			LTHAP			LTHAD			LKNE			LKNM			LTIB			LTIAP			LTIAD			LANK			LMED			LHEE			LTOE			LFMH			LSMH			LVMH			RTHI			RTHAP			RTHAD			RKNE			RKNM			RTIB			RTIAP			RTIAD			RANK			RMED			RHEE			RTOE			RFMH			RSMH			RVMH			
		X1	Y1	Z1	X2	Y2	Z2	X3	Y3	Z3	X4	Y4	Z4	X5	Y5	Z5	X6	Y6	Z6	X7	Y7	Z7	X8	Y8	Z8	X9	Y9	Z9	X10	Y10	Z10	X11	Y11	Z11	X12	Y12	Z12	X13	Y13	Z13	X14	Y14	Z14	X15	Y15	Z15	X16	Y16	Z16	X17	Y17	Z17	X18	Y18	Z18	X19	Y19	Z19	X20	Y20	Z20	X21	Y21	Z21	X22	Y22	Z22	X23	Y23	Z23	X24	Y24	Z24	X25	Y25	Z25	X26	Y26	Z26	X27	Y27	Z27	X28	Y28	Z28	X29	Y29	Z29	X30	Y30	Z30	X31	Y31	Z31	X32	Y32	Z32	X33	Y33	Z33	X34	Y34	Z34	
453	2.26	65.68792	864.94904	2416.2446	327.00806	867.75122	2393.9434				241.30391	928.65912	2603.9412	55.664982	653.79114	2448.4143	36.555553	728.52618	2457.626	48.969051	594.07288	2502.804	81.623055	460.44412	2559.8875				86.041046	261.01593	2654.3506	208.16829	454.73779	2553.0535	119.01414	227.31129	2622.0747	126.215	46.736908	2730.9675				173.23856	46.108826	2787.4744	151.30252	30.652817	2606.3245	191.28877	36.63166	2609.9543				109.75229	19.742443	2623.519	361.95288	621.02789	2340.981	346.78275	744.96552	2362.7256	312.66074	673.75061	2318.1943	340.91608	480.28983	2323.2437				345.50388	300.54626	2259.0078	290.25269	362.1633	2248.7048	287.83524	287.13593	2221.5364	304.12338	68.184341	2209.3735				222.9075	113.6159	2193.176	279.74924	94.363922	2070.8982	245.28256	102.99607	2077.8301				313.24847	71.369759	2074.425
454	2.265	65.491737	864.01349	2410.2488	326.85706	866.75092	2387.3708				241.6954	928.04028	2597.575	55.456139	652.91443	2443.4219	36.589703	728.00189	2452.2791	48.932785	593.46338	2498.0425	81.926338	459.91226	2555.4048				85.82946	261.2533	2651.8096	207.98334	454.07452	2548.3088	118.86856	227.18596	2619.9392	126.20574	47.552418	2730.314				173.20256	47.355606	2786.7769	151.28992	30.732956	2606.2278	191.24983	36.74741	2609.729				109.74523	19.761854	2623.415	362.63464	620.34137	2333.9905	346.73227	743.93408	2356.021	312.65833	672.73657	2311.6396	341.46149	479.65457	2316.3713				345.70108	300.60037	2250.0645	290.33685	362.25223	2240.8835	287.89166	287.56747	2212.7288	304.17465	68.591858	2197.4023				222.82463	114.40911	2182.157	279.24133	97.064812	2061.5964	244.88112	105.29092	2066.7881				312.8577	73.716331	2062.5259
455	2.27	65.309723	863.05487	2404.1772	326.72391	865.76758	2380.76				242.06685	927.40247	2591.1548	55.275139	651.99103	2438.3306	36.663002	727.48273	2446.801	48.909035	592.82452	2493.1887	82.206314	459.31146	2550.875				85.5662	261.49539	2649.2095	207.67097	453.17746	2543.5745	118.686	227.07359	2617.7632	126.13057	48.439819	2729.5815				173.09547	48.707275	2785.9778	151.24651	30.775023	2606.1204	191.18608	36.854496	2609.5115				109.71132	19.746901	2623.3225	363.23257	619.71326	2326.8237	346.65738	743.00403	2349.2129	312.62683	671.84589	2304.9382	341.91132	479.06781	2309.4028				345.86942	300.57779	2241.4058	290.38971	362.23557	2233.1758	287.92331	287.84988	2204.2212	304.22748	68.877441	2186.2192				222.74594	115.04094	2171.821	278.75848	99.427017	2053.5574	244.4955	107.24002	2056.5007				312.48373	75.706772	2051.4521
456	2.275	65.150635	862.07959	2398.022	326.61777	864.81549	2374.1091				242.42317	926.75714	2584.6799	55.130333	651.02698	2433.1294	36.782982	726.97217	2441.1775	48.902954	592.15967	2488.2263	82.458344	458.64981	2546.2747				85.257416	261.74774	2646.5403	207.27606	452.11954	2538.8303	118.47111	226.97832	2615.5356	125.99118	49.405384	2728.7673				172.92026	50.172337	2785.0737	151.17401	30.779543	2606.0007	191.09918	36.953056	2609.2998				109.6534	19.700972	2623.2402	363.73822	619.15222	2319.4783	346.56702	742.18701	2342.2979	312.57059	671.0899	2298.0864	342.2709	478.54559	2302.3271				346.00177	300.47079	2233.0264	290.40683	362.11371	2225.5703	287.92548	287.97684	2196.0017	304.27539	69.020264	2175.8369				222.67328	115.47605	2162.1758	278.30124	101.41413	2046.7975	244.12881	108.80001	2046.9485				312.13281	77.297943	2041.2015
